<svg width="20" height="19" viewBox="0 0 20 19" fill="none" xmlns="http://www.w3.org/2000/svg">
<path d="M1 19C0.71667 19 0.479337 18.904 0.288004 18.712C0.0966702 18.52 0.000670115 18.2827 3.44827e-06 18C-0.000663218 17.7173 0.0953369 17.48 0.288004 17.288C0.48067 17.096 0.718003 17 1 17H9V5.825C8.56667 5.675 8.19167 5.44167 7.875 5.125C7.55834 4.80834 7.325 4.43334 7.175 4H4L6.75 10.45C6.83334 10.6333 6.88334 10.821 6.9 11.013C6.91667 11.205 6.90834 11.4007 6.875 11.6C6.725 12.3667 6.31267 12.9583 5.638 13.375C4.96334 13.7917 4.25067 14 3.5 14C2.74934 14 2.037 13.7917 1.363 13.375C0.689003 12.9583 0.276337 12.3667 0.125003 11.6C0.0916701 11.4 0.0833367 11.2043 0.100003 11.013C0.11667 10.8217 0.16667 10.634 0.250003 10.45L3 4H2C1.71667 4 1.47934 3.90433 1.288 3.713C1.09667 3.52167 1.00067 3.284 1 3C0.999337 2.716 1.09534 2.47867 1.288 2.288C1.48067 2.09734 1.718 2.00133 2 2H7.175C7.375 1.41667 7.73334 0.937668 8.25 0.563002C8.76667 0.188335 9.35 0.000668437 10 1.76991e-06C10.65 -0.000664897 11.2333 0.187002 11.75 0.563002C12.2667 0.939002 12.625 1.418 12.825 2H18C18.2833 2 18.521 2.096 18.713 2.288C18.905 2.48 19.0007 2.71733 19 3C18.9993 3.28267 18.9033 3.52033 18.712 3.713C18.5207 3.90567 18.2833 4.00134 18 4H17L19.75 10.45C19.8333 10.6333 19.8833 10.821 19.9 11.013C19.9167 11.205 19.9083 11.4007 19.875 11.6C19.725 12.3667 19.3127 12.9583 18.638 13.375C17.9633 13.7917 17.2507 14 16.5 14C15.7493 14 15.037 13.7917 14.363 13.375C13.689 12.9583 13.2763 12.3667 13.125 11.6C13.0917 11.4 13.0833 11.2043 13.1 11.013C13.1167 10.8217 13.1667 10.634 13.25 10.45L16 4H12.825C12.675 4.43334 12.4417 4.80834 12.125 5.125C11.8083 5.44167 11.4333 5.675 11 5.825V17H19C19.2833 17 19.521 17.096 19.713 17.288C19.905 17.48 20.0007 17.7173 20 18C19.9993 18.2827 19.9033 18.5203 19.712 18.713C19.5207 18.9057 19.2833 19.0013 19 19H1ZM14.625 11H18.375L16.5 6.65L14.625 11ZM1.625 11H5.375L3.5 6.65L1.625 11ZM10 4C10.2833 4 10.521 3.904 10.713 3.712C10.905 3.52 11.0007 3.28267 11 3C10.9993 2.71733 10.9033 2.48 10.712 2.288C10.5207 2.096 10.2833 2 10 2C9.71667 2 9.47934 2.096 9.288 2.288C9.09667 2.48 9.00067 2.71733 9 3C8.99934 3.28267 9.09534 3.52033 9.288 3.713C9.48067 3.90567 9.718 4.00134 10 4Z" fill="#9F9FA9"/>
</svg>
